<svg version="1.1" xmlns="http://www.w3.org/2000/svg" xmlns:xlink="http://www.w3.org/1999/xlink" viewBox="0 0 850 850" xml:space="preserve"><path class="st0" d="M477.6,400.4c-17.9,0-32.3-14.5-32.3-32.3c0-9.9,4.4-18.7,11.4-24.6c-9.8-3.8-20.4-6-31.6-6 c-48.4,0-87.6,39.2-87.6,87.6c0,48.4,39.2,87.6,87.6,87.6s87.6-39.2,87.6-87.6c0-13.7-3.2-26.6-8.8-38.1 C497.9,395.1,488.3,400.4,477.6,400.4z M425,258c-92.3,0-167.1,74.8-167.1,167.1S332.7,592.2,425,592.2s167.1-74.8,167.1-167.1 S517.3,258,425,258z M425.3,588.6c-90.3,0-163.4-73.2-163.4-163.4s73.2-163.4,163.4-163.4s163.4,73.2,163.4,163.4 S515.6,588.6,425.3,588.6z M0,424.2v1.8c241.2,234.8,621.4,234.8,850,0v-1.8C621.4,189.4,241.2,189.4,0,424.2z M839.5,425.8 c-222.8,228.9-593.3,228.9-828.5,0v-1.7c235.1-228.9,605.7-228.9,828.5,0V425.8z"/></svg>