<svg xmlns="http://www.w3.org/2000/svg" viewBox="0 0 164.15 242.21"><defs><style>.cls-1{isolation:isolate;}.cls-15,.cls-2{fill:#fff;stroke:#000;}.cls-14,.cls-15,.cls-2,.cls-3{stroke-miterlimit:10;}.cls-2{stroke-width:10px;}.cls-3{fill:none;stroke-width:20px;}.cls-14,.cls-3{stroke:#29abe2;}.cls-13,.cls-16,.cls-4{font-size:12px;}.cls-13,.cls-4,.cls-9{font-family:MyriadPro-Regular, Myriad Pro;}.cls-5{letter-spacing:-0.03em;}.cls-6{letter-spacing:0em;}.cls-7{letter-spacing:-0.01em;}.cls-8{letter-spacing:-0.01em;}.cls-9{font-size:8.56px;}.cls-10{letter-spacing:-0.03em;}.cls-11{letter-spacing:-0.01em;}.cls-12{letter-spacing:-0.01em;}.cls-13{mix-blend-mode:lighten;}.cls-14{fill:#29abe2;}.cls-15{stroke-width:25px;}.cls-16{font-family:MyriadPro-Bold, Myriad Pro;font-weight:700;}.cls-17{letter-spacing:-0.01em;}.cls-18{letter-spacing:-0.01em;}.cls-19{letter-spacing:0em;}.cls-20{letter-spacing:-0.01em;}.cls-21{letter-spacing:0.01em;}.cls-22{letter-spacing:-0.01em;}.cls-23{letter-spacing:-0.02em;}.cls-24{letter-spacing:0em;}</style></defs><title>Beginner</title><g class="cls-1"><g id="Laag_2" data-name="Laag 2"><g id="Laag_1-2" data-name="Laag 1"><circle class="cls-2" cx="77.15" cy="115.27" r="70.35"/><path class="cls-3" d="M77.08,44.92A70.35,70.35,0,1,1,25.71,163.33"/><text class="cls-4" transform="translate(55.22 10.05)"><tspan class="cls-5">F</tspan><tspan class="cls-6" x="5.47" y="0">oll</tspan><tspan class="cls-7" x="17.73" y="0">o</tspan><tspan class="cls-8" x="24.24" y="0">w</tspan><tspan x="32.95" y="0">er</tspan></text><text class="cls-9" transform="translate(45.81 23.02)"><tspan class="cls-10">F</tspan><tspan x="3.9" y="0">oll</tspan><tspan class="cls-11" x="12.64" y="0">o</tspan><tspan class="cls-12" x="17.28" y="0">w</tspan><tspan x="23.49" y="0">ed 6 people</tspan></text><text class="cls-13" transform="translate(64.75 239.21)">6/10</text><path class="cls-14" d="M89.83,102.18A17.8,17.8,0,0,1,64.6,102,24.54,24.54,0,0,0,46.91,125.5v25.14a10.51,10.51,0,0,0,10.48,10.48H95.8A11.21,11.21,0,0,0,107,150V125.5A24.54,24.54,0,0,0,89.83,102.18Z"/><circle class="cls-14" cx="76.94" cy="86.74" r="17.81"/><path class="cls-15" d="M165.26,153.68"/><text class="cls-16" transform="translate(0 220.71)"><tspan class="cls-17">P</tspan><tspan class="cls-18" x="6.87" y="0">r</tspan><tspan class="cls-19" x="11.33" y="0">o</tspan><tspan x="18.29" y="0">g</tspan><tspan class="cls-18" x="25.32" y="0">r</tspan><tspan x="29.78" y="0">ess till n</tspan><tspan class="cls-20" x="72.72" y="0">e</tspan><tspan class="cls-21" x="78.92" y="0">x</tspan><tspan x="85.3" y="0">t achi</tspan><tspan class="cls-22" x="114.21" y="0">e</tspan><tspan class="cls-23" x="120.48" y="0">v</tspan><tspan class="cls-6" x="126.66" y="0">eme</tspan><tspan class="cls-22" x="149.66" y="0">n</tspan><tspan class="cls-24" x="156.62" y="0">t:</tspan></text></g></g></g></svg>