<svg xmlns="http://www.w3.org/2000/svg" viewBox="0 0 164.15 242.21"><defs><style>.cls-1{isolation:isolate;}.cls-2{font-size:8.56px;}.cls-15,.cls-2,.cls-8{font-family:MyriadPro-Regular, Myriad Pro;}.cls-3{letter-spacing:-0.03em;}.cls-4{letter-spacing:0em;}.cls-5{letter-spacing:-0.01em;}.cls-6{letter-spacing:-0.01em;}.cls-7{fill:#fff;stroke:#d1a684;stroke-width:10px;}.cls-14,.cls-7{stroke-miterlimit:10;}.cls-15,.cls-16,.cls-8{font-size:12px;}.cls-9{letter-spacing:-0.03em;}.cls-10{letter-spacing:0em;}.cls-11{letter-spacing:-0.01em;}.cls-12{letter-spacing:-0.01em;}.cls-13{fill:#d1a684;}.cls-14{fill:none;stroke:#b4b8bc;stroke-width:20px;}.cls-15{mix-blend-mode:lighten;}.cls-16{font-family:MyriadPro-Bold, Myriad Pro;font-weight:700;}.cls-17{letter-spacing:-0.01em;}.cls-18{letter-spacing:-0.01em;}.cls-19{letter-spacing:0em;}.cls-20{letter-spacing:-0.01em;}.cls-21{letter-spacing:0.01em;}.cls-22{letter-spacing:-0.01em;}.cls-23{letter-spacing:-0.02em;}.cls-24{letter-spacing:0em;}</style></defs><title>Middel 1</title><g class="cls-1"><g id="Laag_2" data-name="Laag 2"><g id="Laag_1-2" data-name="Laag 1"><text class="cls-2" transform="translate(44.35 21.17)"><tspan class="cls-3">F</tspan><tspan class="cls-4" x="3.9" y="0">oll</tspan><tspan class="cls-5" x="12.64" y="0">o</tspan><tspan class="cls-6" x="17.28" y="0">w</tspan><tspan x="23.49" y="0">ed 10 people</tspan></text><circle class="cls-7" cx="79.25" cy="111.84" r="70.35"/><text class="cls-8" transform="translate(41.96 10.05)"><tspan class="cls-9">F</tspan><tspan class="cls-10" x="5.47" y="0">oll</tspan><tspan class="cls-11" x="17.73" y="0">o</tspan><tspan class="cls-12" x="24.24" y="0">w</tspan><tspan x="32.95" y="0">er B</tspan><tspan class="cls-12" x="51.94" y="0">r</tspan><tspan class="cls-10" x="55.75" y="0">ons</tspan></text><path class="cls-13" d="M91.94,98.76A17.8,17.8,0,0,1,66.7,98.6,24.54,24.54,0,0,0,49,122.08v25.14A10.51,10.51,0,0,0,59.49,157.7H97.91a11.21,11.21,0,0,0,11.18-11.18V122.08A24.54,24.54,0,0,0,91.94,98.76Z"/><circle class="cls-13" cx="79.05" cy="83.32" r="17.81"/><path class="cls-14" d="M79.25,41.5A70.36,70.36,0,0,1,139,149.06"/><text class="cls-15" transform="translate(64.75 239.21)">20/50</text><text class="cls-16" transform="translate(0 220.71)"><tspan class="cls-17">P</tspan><tspan class="cls-18" x="6.87" y="0">r</tspan><tspan class="cls-19" x="11.33" y="0">o</tspan><tspan x="18.29" y="0">g</tspan><tspan class="cls-18" x="25.32" y="0">r</tspan><tspan x="29.78" y="0">ess till n</tspan><tspan class="cls-20" x="72.72" y="0">e</tspan><tspan class="cls-21" x="78.92" y="0">x</tspan><tspan x="85.3" y="0">t achi</tspan><tspan class="cls-22" x="114.21" y="0">e</tspan><tspan class="cls-23" x="120.48" y="0">v</tspan><tspan class="cls-10" x="126.66" y="0">eme</tspan><tspan class="cls-22" x="149.66" y="0">n</tspan><tspan class="cls-24" x="156.62" y="0">t:</tspan></text></g></g></g></svg>