<svg xmlns="http://www.w3.org/2000/svg" viewBox="0 0 160.69 188.49"><defs><style>.cls-1{fill:#fff;stroke:#ffcc01;stroke-miterlimit:10;stroke-width:20px;}.cls-2{fill:#ffcc01;}.cls-3{font-size:8.56px;}.cls-3,.cls-7{font-family:MyriadPro-Regular, Myriad Pro;}.cls-4{letter-spacing:-0.03em;}.cls-5{letter-spacing:-0.01em;}.cls-6{letter-spacing:-0.01em;}.cls-7{font-size:12px;}.cls-8{letter-spacing:-0.03em;}.cls-9{letter-spacing:0em;}.cls-10{letter-spacing:-0.01em;}.cls-11{letter-spacing:-0.01em;}.cls-12{letter-spacing:0em;}.cls-13{letter-spacing:0em;}</style></defs><title>GoldAchieved</title><g id="Laag_2" data-name="Laag 2"><g id="Laag_1-2" data-name="Laag 1"><text></text><circle class="cls-1" cx="80.35" cy="108.14" r="70.35"/><text></text><path class="cls-2" d="M93,95.06A17.8,17.8,0,0,1,67.8,94.9a24.54,24.54,0,0,0-17.69,23.48v25.14A10.51,10.51,0,0,0,60.59,154H99a11.21,11.21,0,0,0,11.18-11.18V118.38A24.54,24.54,0,0,0,93,95.06Z"/><circle class="cls-2" cx="80.14" cy="79.62" r="17.81"/><text class="cls-3" transform="translate(46.41 21.17)"><tspan class="cls-4">F</tspan><tspan x="3.9" y="0">oll</tspan><tspan class="cls-5" x="12.64" y="0">o</tspan><tspan class="cls-6" x="17.28" y="0">w</tspan><tspan x="23.49" y="0">ed 100 people</tspan></text><text class="cls-7" transform="translate(48.41 10.05)"><tspan class="cls-8">F</tspan><tspan class="cls-9" x="5.47" y="0">oll</tspan><tspan class="cls-10" x="17.73" y="0">o</tspan><tspan class="cls-11" x="24.24" y="0">w</tspan><tspan class="cls-12" x="32.95" y="0">er </tspan><tspan class="cls-13" x="45.44" y="0">G</tspan><tspan x="53.25" y="0">old</tspan></text></g></g></svg>