<svg xmlns="http://www.w3.org/2000/svg" viewBox="0 0 160.69 187.57"><defs><style>.cls-1{fill:#fff;stroke:#b4b8bc;stroke-miterlimit:10;stroke-width:20px;}.cls-1,.cls-2,.cls-4,.cls-7{opacity:0.5;}.cls-3{fill:#b4b8bc;}.cls-4{font-size:8.56px;}.cls-4,.cls-7{font-family:MyriadPro-Regular, Myriad Pro;}.cls-5{letter-spacing:-0.01em;}.cls-6{letter-spacing:0em;}.cls-7{font-size:12px;}.cls-8{letter-spacing:-0.03em;}.cls-9{letter-spacing:0em;}.cls-10{letter-spacing:-0.01em;}.cls-11{letter-spacing:-0.01em;}.cls-12{letter-spacing:-0.01em;}</style></defs><title>NotYetSilver</title><g id="Laag_2" data-name="Laag 2"><g id="Laag_1-2" data-name="Laag 1"><circle class="cls-1" cx="80.35" cy="107.22" r="70.35"/><g class="cls-2"><path class="cls-3" d="M93,94.13A17.8,17.8,0,0,1,67.8,94a24.54,24.54,0,0,0-17.69,23.48V142.6a10.51,10.51,0,0,0,10.48,10.48H99a11.21,11.21,0,0,0,11.18-11.18V117.46A24.54,24.54,0,0,0,93,94.13Z"/><circle class="cls-3" cx="80.14" cy="78.69" r="17.81"/></g><text class="cls-4" transform="translate(45.45 21.17)">Not <tspan class="cls-5" x="14.98" y="0">y</tspan><tspan x="18.92" y="0">et achie</tspan><tspan class="cls-5" x="46.85" y="0">v</tspan><tspan class="cls-6" x="50.89" y="0">ed</tspan></text><text class="cls-7" transform="translate(43.06 10.05)"><tspan class="cls-8">F</tspan><tspan class="cls-9" x="5.47" y="0">oll</tspan><tspan class="cls-10" x="17.73" y="0">o</tspan><tspan class="cls-11" x="24.24" y="0">w</tspan><tspan x="32.95" y="0">er Sil</tspan><tspan class="cls-12" x="57" y="0">v</tspan><tspan x="62.65" y="0">er</tspan></text></g></g></svg>