<svg xmlns="http://www.w3.org/2000/svg" viewBox="0 0 160.69 188.49"><defs><style>.cls-1,.cls-2,.cls-4,.cls-7{opacity:0.5;}.cls-2{fill:#fff;stroke:#ffcc01;stroke-miterlimit:10;stroke-width:20px;}.cls-3{fill:#ffcc01;}.cls-4{font-size:8.56px;}.cls-4,.cls-7{font-family:MyriadPro-Regular, Myriad Pro;}.cls-5{letter-spacing:-0.01em;}.cls-6{letter-spacing:-0.01em;}.cls-7{font-size:12px;}.cls-8{letter-spacing:-0.03em;}.cls-9{letter-spacing:0em;}.cls-10{letter-spacing:-0.01em;}.cls-11{letter-spacing:-0.01em;}.cls-12{letter-spacing:0em;}.cls-13{letter-spacing:0em;}</style></defs><title>NotYetGold</title><g id="Laag_2" data-name="Laag 2"><g id="Laag_1-2" data-name="Laag 1"><text class="cls-1"></text><circle class="cls-2" cx="80.35" cy="108.14" r="70.35"/><text class="cls-1"></text><g class="cls-1"><path class="cls-3" d="M93,95.06A17.8,17.8,0,0,1,67.8,94.9a24.54,24.54,0,0,0-17.69,23.48v25.14A10.51,10.51,0,0,0,60.59,154H99a11.21,11.21,0,0,0,11.18-11.18V118.38A24.54,24.54,0,0,0,93,95.06Z"/><circle class="cls-3" cx="80.14" cy="79.62" r="17.81"/></g><text class="cls-4" transform="translate(51.04 21.17)">Not <tspan class="cls-5" x="14.98" y="0">y</tspan><tspan x="18.92" y="0">et achie</tspan><tspan class="cls-6" x="46.85" y="0">v</tspan><tspan x="50.89" y="0">ed</tspan></text><text class="cls-7" transform="translate(48.41 10.05)"><tspan class="cls-8">F</tspan><tspan class="cls-9" x="5.47" y="0">oll</tspan><tspan class="cls-10" x="17.73" y="0">o</tspan><tspan class="cls-11" x="24.24" y="0">w</tspan><tspan class="cls-12" x="32.95" y="0">er </tspan><tspan class="cls-13" x="45.44" y="0">G</tspan><tspan x="53.25" y="0">old</tspan></text></g></g></svg>