<svg xmlns="http://www.w3.org/2000/svg" viewBox="0 0 164.84 240.59"><defs><style>.cls-1{isolation:isolate;}.cls-2{font-size:8.56px;}.cls-17,.cls-2,.cls-8{font-family:MyriadPro-Regular, Myriad Pro;}.cls-3{letter-spacing:-0.03em;}.cls-4{letter-spacing:0em;}.cls-5{letter-spacing:-0.01em;}.cls-6{letter-spacing:-0.01em;}.cls-7{fill:#fff;stroke:#b4b8bc;stroke-width:10px;}.cls-16,.cls-7{stroke-miterlimit:10;}.cls-17,.cls-18,.cls-8{font-size:12px;}.cls-9{letter-spacing:-0.03em;}.cls-10{letter-spacing:0em;}.cls-11{letter-spacing:-0.01em;}.cls-12{letter-spacing:-0.01em;}.cls-13{letter-spacing:0em;}.cls-14{letter-spacing:-0.01em;}.cls-15{fill:#b4b8bc;}.cls-16{fill:none;stroke:#ffcc01;stroke-width:20px;}.cls-17{mix-blend-mode:lighten;}.cls-18{font-family:MyriadPro-Bold, Myriad Pro;font-weight:700;}.cls-19{letter-spacing:-0.01em;}.cls-20{letter-spacing:-0.01em;}.cls-21{letter-spacing:0em;}.cls-22{letter-spacing:-0.01em;}.cls-23{letter-spacing:0.01em;}.cls-24{letter-spacing:-0.01em;}.cls-25{letter-spacing:-0.01em;}.cls-26{letter-spacing:0em;}</style></defs><title>SilverToGold</title><g class="cls-1"><g id="Laag_2" data-name="Laag 2"><g id="Laag_1-2" data-name="Laag 1"><text class="cls-2" transform="translate(43.87 21.17)"><tspan class="cls-3">F</tspan><tspan class="cls-4" x="3.9" y="0">oll</tspan><tspan class="cls-5" x="12.64" y="0">o</tspan><tspan class="cls-6" x="17.28" y="0">w</tspan><tspan x="23.49" y="0">ed 50 people</tspan></text><circle class="cls-7" cx="80.35" cy="110.22" r="70.35"/><text class="cls-8" transform="translate(44.02 10.05)"><tspan class="cls-9">F</tspan><tspan class="cls-10" x="5.47" y="0">oll</tspan><tspan class="cls-11" x="17.73" y="0">o</tspan><tspan class="cls-12" x="24.24" y="0">w</tspan><tspan class="cls-13" x="32.95" y="0">er Sil</tspan><tspan class="cls-14" x="57" y="0">v</tspan><tspan x="62.65" y="0">er</tspan></text><path class="cls-15" d="M93,97.13A17.8,17.8,0,0,1,67.8,97a24.54,24.54,0,0,0-17.69,23.48V145.6a10.51,10.51,0,0,0,10.48,10.48H99a11.21,11.21,0,0,0,11.18-11.18V120.46A24.54,24.54,0,0,0,93,97.13Z"/><circle class="cls-15" cx="80.14" cy="81.69" r="17.81"/><path class="cls-16" d="M80.35,39.87A70.35,70.35,0,1,1,10,110.22"/><text class="cls-17" transform="translate(65.45 237.59)">75/100</text><text class="cls-18" transform="translate(0.69 219.08)"><tspan class="cls-19">P</tspan><tspan class="cls-20" x="6.87" y="0">r</tspan><tspan class="cls-21" x="11.33" y="0">o</tspan><tspan x="18.29" y="0">g</tspan><tspan class="cls-20" x="25.32" y="0">r</tspan><tspan x="29.78" y="0">ess till n</tspan><tspan class="cls-22" x="72.72" y="0">e</tspan><tspan class="cls-23" x="78.92" y="0">x</tspan><tspan x="85.3" y="0">t achi</tspan><tspan class="cls-24" x="114.21" y="0">e</tspan><tspan class="cls-25" x="120.48" y="0">v</tspan><tspan class="cls-13" x="126.66" y="0">eme</tspan><tspan class="cls-24" x="149.66" y="0">n</tspan><tspan class="cls-26" x="156.62" y="0">t:</tspan></text></g></g></g></svg>