<svg xmlns="http://www.w3.org/2000/svg" viewBox="0 0 107.39 107.32"><defs><style>.cls-1{fill:#29abe2;}.cls-2{fill:#fff;}</style></defs><title>BeginnerTracker</title><g id="Laag_2" data-name="Laag 2"><g id="Laag_1-2" data-name="Laag 1"><circle class="cls-1" cx="52.73" cy="53.58" r="52.73"/><circle class="cls-2" cx="52.73" cy="53.58" r="5.01" transform="translate(-22.44 52.98) rotate(-45)"/><path class="cls-2" d="M66,12.81h0a2.78,2.78,0,0,1,2.78,2.78V60.31a0,0,0,0,1,0,0H63.35a0,0,0,0,1,0,0V15.47A2.66,2.66,0,0,1,66,12.81Z" transform="translate(33.97 -31.79) rotate(35.88)"/><path class="cls-2" d="M61.62,48.46h0a2.85,2.85,0,0,1,2.85,2.85V84.16A2.85,2.85,0,0,1,61.62,87h0a2.78,2.78,0,0,1-2.78-2.78v-33A2.78,2.78,0,0,1,61.62,48.46Z" transform="matrix(0.84, -0.55, 0.55, 0.84, -27.09, 45.07)"/><rect class="cls-2" x="52.81" width="1.85" height="6.48"/><rect class="cls-2" x="52.81" y="100.84" width="1.85" height="6.48"/><rect class="cls-2" x="27.6" y="6.75" width="1.85" height="6.48" transform="translate(-1.17 15.6) rotate(-30)"/><rect class="cls-2" x="78.02" y="94.08" width="1.85" height="6.48" transform="translate(-38.08 52.51) rotate(-30)"/><rect class="cls-2" x="9.15" y="25.21" width="1.85" height="6.48" transform="translate(-19.6 22.95) rotate(-60)"/><rect class="cls-2" x="96.48" y="75.63" width="1.85" height="6.48" transform="translate(-19.6 123.79) rotate(-60)"/><rect class="cls-2" x="2.39" y="50.42" width="1.85" height="6.48" transform="translate(-50.34 56.97) rotate(-90)"/><rect class="cls-2" x="103.23" y="50.42" width="1.85" height="6.48" transform="translate(50.5 157.81) rotate(-90)"/><rect class="cls-2" x="9.15" y="75.63" width="1.85" height="6.48" transform="translate(-53.19 127.02) rotate(-120)"/><rect class="cls-2" x="96.48" y="25.21" width="1.85" height="6.48" transform="translate(121.47 127.02) rotate(-120)"/><rect class="cls-2" x="27.6" y="94.08" width="1.85" height="6.48" transform="translate(4.57 195.87) rotate(-150)"/><rect class="cls-2" x="78.02" y="6.75" width="1.85" height="6.48" transform="translate(142.32 58.12) rotate(-150)"/><rect class="cls-2" x="52.81" y="100.84" width="1.85" height="6.48" transform="translate(107.47 208.15) rotate(-180)"/><rect class="cls-2" x="52.81" width="1.85" height="6.48" transform="translate(107.47 6.48) rotate(-180)"/></g></g></svg>